Coordinates
version=1
nRows=29
nColumns=22
inDegrees=yes

Units are S.I. units (second, meters, Newtons, ...)
If the header above contains a line with 'inDegrees', this indicates whether rotational values are in degrees (yes) or radians (no).

endheader
time	pelvis_tilt	pelvis_list	pelvis_rotation	pelvis_tx	pelvis_ty	pelvis_tz	hip_flexion_r	hip_adduction_r	hip_rotation_r	knee_angle_r	ankle_angle_r	subtalar_angle_r	hip_flexion_l	hip_adduction_l	hip_rotation_l	knee_angle_l	ankle_angle_l	subtalar_angle_l	lumbar_extension	lumbar_bending	lumbar_rotation
      0.01000000	     -5.11664895	     -2.49209562	      4.33792912	      0.11257528	      0.95401016	      1.19077691	      6.98706997	      2.18321229	     -5.37882930	    -13.61923961	     12.86054932	     -0.94465402	      4.39305182	     -3.18998801	     -5.18014315	    -10.51158129	     10.82768357	     -4.42259228	     -0.19809662	     -0.11003113	     -1.37095443
      0.02000000	     -5.11983889	     -2.49115932	      4.33747427	      0.11247818	      0.95400856	      1.19076913	      6.99575027	      2.17946249	     -5.38124570	    -13.61504326	     12.86161788	     -0.94419938	      4.40034038	     -3.18763581	     -5.17833942	    -10.50697364	     10.82766908	     -4.42326503	     -0.21464307	     -0.10073207	     -1.36563254
      0.03000000	     -5.11641504	     -2.49628044	      4.33292632	      0.11234020	      0.95401382	      1.19076648	      7.02180301	      2.18037032	     -5.40741269	    -13.64949104	     12.86121688	     -0.94099827	      4.41436067	     -3.19227006	     -5.15874897	    -10.52573789	     10.82020338	     -4.42831468	     -0.24479126	     -0.08288841	     -1.31317225
      0.04000000	     -5.12062260	     -2.49906515	      4.32807314	      0.11220471	      0.95400834	      1.19076521	      7.05415949	      2.17851750	     -5.42956185	    -13.68067230	     12.85818371	     -0.93663465	      4.43256661	     -3.19487303	     -5.15712102	    -10.53554761	     10.81703199	     -4.43604771	     -0.26713131	     -0.06701373	     -1.28235745
      0.05000000	     -5.12628674	     -2.50087427	      4.32403498	      0.11207751	      0.95400262	      1.19075963	      7.08272786	      2.17670347	     -5.44265866	    -13.70422116	     12.85450346	     -0.93186094	      4.45347459	     -3.19562248	     -5.15635589	    -10.54780075	     10.81343703	     -4.44262811	     -0.28547692	     -0.05228017	     -1.25053613
      0.06000000	     -5.13228743	     -2.50373030	      4.31695890	      0.11195734	      0.95399790	      1.19076061	      7.11198635	      2.17709821	     -5.44940934	    -13.72840940	     12.84911061	     -0.92609703	      4.47342865	     -3.19768185	     -5.15781741	    -10.56016579	     10.81037879	     -4.44892699	     -0.30250625	     -0.03773482	     -1.22019814
      0.07000000	     -5.13613019	     -2.50246167	      4.31416022	      0.11187115	      0.95400067	      1.19076507	      7.12105732	      2.17579125	     -5.45037796	    -13.72516420	     12.84890631	     -0.92536069	      4.48144615	     -3.19580806	     -5.15870249	    -10.55651714	     10.81046188	     -4.44961089	     -0.31706380	     -0.03083320	     -1.21622471
      0.08000000	     -5.13643272	     -2.50886487	      4.29851021	      0.11175601	      0.95400547	      1.19078395	      7.15080304	      2.18197434	     -5.44813202	    -13.76149958	     12.83744001	     -0.91731000	      4.49989920	     -3.20381419	     -5.16145492	    -10.58050730	     10.80501055	     -4.45533899	     -0.33765067	     -0.01309875	     -1.16908516
      0.09000000	     -5.13930457	     -2.50783354	      4.29379951	      0.11168645	      0.95401009	      1.19078523	      7.15779590	      2.18075676	     -5.44760139	    -13.75844618	     12.83712490	     -0.91644420	      4.50581525	     -3.20155974	     -5.16359661	    -10.57787608	     10.80539789	     -4.45608102	     -0.34777318	     -0.00598910	     -1.16736941
      0.10000000	     -5.16017255	     -2.52008550	      4.25024573	      0.11159523	      0.95398409	      1.19085674	      7.20631394	      2.19745423	     -5.39648072	    -13.78759371	     12.82072606	     -0.88933630	      4.54342684	     -3.21968278	     -5.22964289	    -10.60377832	     10.81231759	     -4.48025348	     -0.33563239	      0.01487680	     -1.11726796
      0.11000000	     -5.16113061	     -2.51897671	      4.24169186	      0.11153268	      0.95399223	      1.19086850	      7.21099495	      2.19649098	     -5.39659514	    -13.78442768	     12.82091703	     -0.88893375	      4.54739525	     -3.21768857	     -5.22861226	    -10.60372852	     10.81153021	     -4.48038604	     -0.34386743	      0.02002926	     -1.11836362
      0.12000000	     -5.16116833	     -2.51853102	      4.22724831	      0.11147173	      0.95400127	      1.19089470	      7.21600342	      2.19656582	     -5.39589013	    -13.78251439	     12.82032745	     -0.88844050	      4.55043499	     -3.21739857	     -5.22805897	    -10.60654947	     10.80996012	     -4.48064237	     -0.35155636	      0.02497369	     -1.12102109
      0.13000000	     -5.15584627	     -2.52800345	      4.19764745	      0.11138821	      0.95401729	      1.19095464	      7.23098135	      2.21105706	     -5.36344073	    -13.80553358	     12.80636128	     -0.88354509	      4.56025582	     -3.23246754	     -5.25388312	    -10.63233746	     10.79796396	     -4.48575536	     -0.36528968	      0.04270146	     -1.12062178
      0.14000000	     -5.15754389	     -2.52794621	      4.17955007	      0.11131670	      0.95402521	      1.19100904	      7.23648557	      2.21389046	     -5.36490575	    -13.79874400	     12.80590267	     -0.88317442	      4.56426245	     -3.23411192	     -5.25561059	    -10.63196017	     10.79818788	     -4.48659498	     -0.37193861	      0.04181271	     -1.12457421
      0.15000000	     -5.17538552	     -2.54579885	      4.12427649	      0.11125668	      0.95400819	      1.19113102	      7.26500775	      2.24228188	     -5.30654499	    -13.79707603	     12.77617137	     -0.87548486	      4.59596679	     -3.26291689	     -5.34337851	    -10.65868410	     10.80212006	     -4.50681247	     -0.35135690	      0.06181237	     -1.09880621
      0.16000000	     -5.17607118	     -2.54527445	      4.10153841	      0.11119063	      0.95401721	      1.19119873	      7.27005557	      2.24482527	     -5.30908180	    -13.79283957	     12.77618898	     -0.87546644	      4.59830623	     -3.26514443	     -5.34234888	    -10.65951798	     10.80209405	     -4.50712903	     -0.35613580	      0.05928841	     -1.10752370
      0.17000000	     -5.19351099	     -2.55667528	      4.05866877	      0.11113155	      0.95399895	      1.19131285	      7.30250425	      2.26399984	     -5.27483193	    -13.80316872	     12.75916577	     -0.87470599	      4.62803805	     -3.28577710	     -5.40442857	    -10.68137378	     10.80475670	     -4.51449387	     -0.33489910	      0.06852450	     -1.11048228
      0.18000000	     -5.19409693	     -2.55624784	      4.03571094	      0.11107073	      0.95400619	      1.19138299	      7.30698165	      2.26701568	     -5.27765689	    -13.79864022	     12.75927213	     -0.87472883	      4.62996970	     -3.28830956	     -5.40293212	    -10.68288435	     10.80493378	     -4.51452075	     -0.33871566	      0.06474160	     -1.11933510
      0.19000000	     -5.19956005	     -2.56146162	      4.00844421	      0.11102211	      0.95400457	      1.19146699	      7.32185800	      2.27819137	     -5.25742947	    -13.80543843	     12.75103225	     -0.87366476	      4.64044772	     -3.29989890	     -5.43540230	    -10.69092962	     10.80822047	     -4.51434226	     -0.33237836	      0.06813476	     -1.14880126
      0.20000000	     -5.19891613	     -2.56170125	      3.98772397	      0.11098835	      0.95401122	      1.19153999	      7.32354035	      2.28328060	     -5.25936888	    -13.80263497	     12.75074622	     -0.87343906	      4.64123858	     -3.30391621	     -5.43451071	    -10.69564730	     10.80819583	     -4.51412561	     -0.33183895	      0.06135671	     -1.15547175
      0.21000000	     -5.19840043	     -2.56607056	      3.96271484	      0.11095454	      0.95401413	      1.19160320	      7.32983480	      2.29308095	     -5.23455144	    -13.80817307	     12.74357831	     -0.87050627	      4.64972901	     -3.31370157	     -5.46105534	    -10.71396835	     10.81167339	     -4.51199351	     -0.32906249	      0.06646969	     -1.18260576
      0.22000000	     -5.19781855	     -2.56721180	      3.94809329	      0.11091967	      0.95401811	      1.19168120	      7.33212426	      2.30006483	     -5.23466255	    -13.80588925	     12.74325958	     -0.86999673	      4.65133964	     -3.31967116	     -5.46143511	    -10.71672951	     10.81237768	     -4.51169321	     -0.33140608	      0.05568876	     -1.18900283
      0.23000000	     -5.19189791	     -2.57066591	      3.92831184	      0.11088713	      0.95402534	      1.19173673	      7.33444085	      2.30890478	     -5.20458706	    -13.81575061	     12.73783819	     -0.86639013	      4.65539458	     -3.32834716	     -5.48333246	    -10.73720071	     10.81888275	     -4.50858867	     -0.33720493	      0.05911260	     -1.22187735
      0.24000000	     -5.19061808	     -2.57198083	      3.91538518	      0.11085775	      0.95402966	      1.19181040	      7.33599144	      2.31558253	     -5.20390348	    -13.81430956	     12.73768718	     -0.86586402	      4.65654098	     -3.33423425	     -5.48395651	    -10.74023307	     10.81993239	     -4.50814109	     -0.34051395	      0.04849568	     -1.22840566
      0.25000000	     -5.17869909	     -2.57491744	      3.89659596	      0.11082033	      0.95404636	      1.19186783	      7.33530194	      2.32391495	     -5.17266930	    -13.82964552	     12.73395268	     -0.86304728	      4.65651953	     -3.34286609	     -5.50485735	    -10.76424384	     10.82809700	     -4.50469039	     -0.35542034	      0.05131254	     -1.26283987
      0.26000000	     -5.17712913	     -2.57633345	      3.88362898	      0.11078196	      0.95405249	      1.19194602	      7.33767566	      2.33064316	     -5.17197169	    -13.82785290	     12.73403728	     -0.86266311	      4.65770935	     -3.34896109	     -5.50612737	    -10.76698194	     10.82950074	     -4.50427372	     -0.36179066	      0.04074987	     -1.26919939
      0.27000000	     -5.15814090	     -2.58054405	      3.86237414	      0.11072529	      0.95407966	      1.19201477	      7.33569619	      2.34136600	     -5.13723462	    -13.85146333	     12.73024844	     -0.86081131	      4.65423113	     -3.36076411	     -5.53559958	    -10.79680962	     10.84038227	     -4.50161580	     -0.38851407	      0.04548565	     -1.30072385
      0.28000000	     -5.15657083	     -2.58171356	      3.84738289	      0.11068079	      0.95408953	      1.19209803	      7.33807352	      2.34797664	     -5.13789326	    -13.84909936	     12.73038016	     -0.86062570	      4.65550868	     -3.36640162	     -5.53692084	    -10.79896114	     10.84166766	     -4.50147269	     -0.39551805	      0.03583704	     -1.30539392
      0.29000000	     -5.13356406	     -2.58863474	      3.81855547	      0.11059979	      0.95412371	      1.19219708	      7.33811913	      2.36345382	     -5.10325946	    -13.87875145	     12.72382543	     -0.85988123	      4.64942276	     -3.38407874	     -5.58165760	    -10.82980077	     10.85409403	     -4.50122252	     -0.43308031	      0.04128206	     -1.31694782
